<?xml version="1.0" encoding="utf-8"?>
<!-- Generator: Adobe Illustrator 23.0.1, SVG Export Plug-In . SVG Version: 6.00 Build 0)  -->
<svg version="1.1" id="Layer_1" xmlns="http://www.w3.org/2000/svg" xmlns:xlink="http://www.w3.org/1999/xlink" x="0px" y="0px"
	 viewBox="0 0 730 141.33" style="enable-background:new 0 0 730 141.33;" xml:space="preserve">
<style type="text/css">
	.st0{fill-rule:evenodd;clip-rule:evenodd;}
</style>
<g>
	<g>
		<path d="M116.13,61.27c-6.03-5.41-7.52-12.49-7.52-18.4c0-4.16,1.43-11.44,6.96-16.97c3.73-3.73,9.39-6.65,18.96-6.65
			c2.49,0,5.97,0.19,9.01,0.75c2.36,0.44,4.35,0.81,6.34,0.93c0.68,0.06,0.81,0.31,0.81,0.68c0,0.5-0.19,1.24-0.31,3.48
			c-0.12,2.05-0.12,5.47-0.19,6.4c-0.06,0.93-0.19,1.3-0.56,1.3c-0.44,0-0.5-0.44-0.5-1.3c0-2.42-0.99-4.97-2.61-6.34
			c-2.18-1.87-6.96-3.54-12.43-3.54c-8.27,0-12.12,2.42-14.3,4.54c-4.54,4.35-5.59,9.88-5.59,16.22c0,11.87,9.14,22.75,22.44,22.75
			c4.66,0,8.33-0.56,10.82-3.11c1.31-1.37,2.11-4.11,2.3-5.22c0.12-0.68,0.25-0.93,0.62-0.93c0.31,0,0.43,0.43,0.43,0.93
			c0,0.44-0.75,5.84-1.37,7.96c-0.37,1.18-0.5,1.31-1.62,1.8c-2.49,0.99-7.21,1.43-11.19,1.43
			C127.32,67.99,121.04,65.69,116.13,61.27z"/>
		<path d="M177.72,26.4c12.31,0,21.63,7.52,21.63,19.83c0,11.81-8.76,21.57-21.94,21.57c-14.98,0-21.38-11.25-21.38-20.76
			C156.03,38.52,162.62,26.4,177.72,26.4z M178.97,65.62c4.91,0,14.8-2.61,14.8-17.9c0-12.68-7.71-19.34-16.35-19.34
			c-9.14,0-15.73,5.72-15.73,17.22C161.68,57.91,169.08,65.62,178.97,65.62z"/>
		<path d="M214.18,51.88c0,7.77,0.12,10.94,1.12,11.87c0.87,0.87,2.98,1.24,7.27,1.24c2.86,0,5.28-0.06,6.59-1.62
			c0.68-0.81,1.12-1.93,1.31-2.98c0.06-0.37,0.25-0.68,0.56-0.68c0.25,0,0.37,0.25,0.37,0.81c0,0.56-0.37,3.73-0.81,5.28
			c-0.37,1.24-0.56,1.43-3.48,1.43c-3.92,0-6.96-0.06-9.51-0.19c-2.49-0.06-4.35-0.12-5.97-0.12c-0.25,0-1.18,0-2.24,0.06
			c-1.12,0.06-2.3,0.12-3.17,0.12c-0.56,0-0.87-0.12-0.87-0.44c0-0.19,0.12-0.44,0.44-0.44c0.5,0,1.18-0.12,1.68-0.25
			c1.06-0.25,1.18-1.24,1.43-2.8c0.31-2.18,0.31-6.34,0.31-11.44v-9.32c0-8.2,0-9.7-0.12-11.38c-0.12-1.8-0.44-2.67-2.24-2.92
			c-0.43-0.06-1.37-0.13-1.86-0.13c-0.19,0-0.43-0.25-0.43-0.43c0-0.31,0.25-0.43,0.87-0.43c2.49,0,5.91,0.12,6.22,0.12
			c0.25,0,4.35-0.12,6.03-0.12c0.56,0,0.87,0.12,0.87,0.43c0,0.19-0.25,0.37-0.44,0.37c-0.37,0-1.18,0.06-1.8,0.12
			c-1.62,0.31-1.93,1.12-2.05,2.98c-0.06,1.68-0.06,3.17-0.06,11.38V51.88z"/>
		<path d="M236.91,42.44c0-8.2,0-9.7-0.12-11.38c-0.12-1.68-0.44-2.67-2.24-2.92c-0.44-0.06-1.37-0.13-1.86-0.13
			c-0.19,0-0.44-0.25-0.44-0.43c0-0.31,0.25-0.43,0.87-0.43c2.49,0,5.78,0.12,6.28,0.12c0.5,0,3.92-0.12,5.53-0.12
			c0.62,0,0.93,0.12,0.93,0.43c0,0.19-0.25,0.43-0.5,0.43c-0.37,0-0.68,0-1.37,0.13c-1.43,0.25-1.74,1.18-1.87,2.92
			c-0.12,1.68-0.12,3.17-0.12,11.38v7.4c0,7.65,1.68,10.82,4.04,12.93c2.67,2.42,5.03,2.86,8.14,2.86c3.36,0,6.59-1.49,8.46-3.73
			c2.55-3.04,3.11-7.39,3.11-12.8v-6.65c0-8.2-0.06-9.7-0.12-11.38c-0.06-1.68-0.37-2.67-2.18-2.92c-0.44-0.06-1.37-0.13-1.87-0.13
			c-0.25,0-0.44-0.25-0.44-0.43c0-0.31,0.25-0.43,0.87-0.43c2.42,0,5.6,0.12,5.91,0.12c0.37,0,2.98-0.12,4.6-0.12
			c0.62,0,0.87,0.12,0.87,0.43c0,0.19-0.19,0.43-0.44,0.43c-0.37,0-0.68,0-1.37,0.13c-1.49,0.31-1.8,1.18-1.93,2.92
			c-0.12,1.68-0.06,3.17-0.06,11.38v5.66c0,5.72-0.75,12.12-5.1,15.85c-3.98,3.42-8.2,3.85-11.44,3.85c-1.8,0-7.52-0.12-11.38-3.73
			c-2.67-2.49-4.79-6.16-4.79-13.86V42.44z"/>
		<path d="M323.27,60.28c0.19,1.87,0.56,4.73,2.8,5.47c1.55,0.5,2.98,0.5,3.54,0.5c0.25,0,0.44,0.13,0.44,0.37
			c0,0.31-0.5,0.5-1.12,0.5c-1.24,0-7.34-0.12-9.32-0.31c-1.31-0.12-1.56-0.31-1.56-0.56c0-0.18,0.13-0.37,0.37-0.43
			c0.31-0.06,0.37-0.87,0.25-1.86l-2.61-26.73h-0.12l-13.18,26.98c-1.12,2.3-1.43,2.8-1.93,2.8c-0.5,0-0.81-0.5-1.86-2.43
			c-1.43-2.61-5.03-9.39-6.4-12.25c-1.62-3.35-6.03-12.25-6.96-14.42h-0.25l-2.11,23.87c-0.06,0.81-0.06,1.8-0.06,2.68
			c0,0.81,0.5,1.3,1.31,1.49c0.93,0.25,1.74,0.31,2.11,0.31c0.19,0,0.43,0.19,0.43,0.37c0,0.37-0.37,0.5-0.99,0.5
			c-2.05,0-4.66-0.19-5.1-0.19c-0.5,0-3.11,0.19-4.6,0.19c-0.56,0-0.93-0.12-0.93-0.5c0-0.18,0.25-0.37,0.56-0.37
			c0.44,0,0.81-0.06,1.62-0.18c1.8-0.31,1.86-2.24,2.11-4.23l3.98-34.5c0.06-0.56,0.31-0.93,0.62-0.93c0.37,0,0.81,0.19,1.12,0.81
			l16.53,32.82l15.91-32.76c0.25-0.5,0.5-0.87,0.87-0.87c0.37,0,0.68,0.44,0.81,1.43L323.27,60.28z"/>
		<path d="M339.04,42.44c0-8.2,0-9.7-0.12-11.38c-0.12-1.8-0.44-2.8-2.24-3.05c-0.44-0.06-1.37-0.12-1.87-0.12
			c-0.19,0-0.43-0.13-0.43-0.31c0-0.31,0.25-0.43,0.87-0.43c2.49,0,6.03,0.12,6.34,0.12c1.31,0,3.85-0.12,6.4-0.12
			c9.14,0,11.5,5.28,11.5,8.08c0,4.17-2.73,6.78-5.53,9.26c4.17,1.24,9.64,5.03,9.64,11c0,5.91-4.42,11.75-13.74,11.75
			c-1,0-2.98-0.06-4.73-0.19c-1.74-0.06-3.29-0.12-3.54-0.12c-0.12,0-1.12,0.06-2.24,0.06c-1.12,0.06-2.42,0.12-3.29,0.12
			c-0.56,0-0.87-0.12-0.87-0.44c0-0.19,0.12-0.31,0.44-0.31c0.5,0,1.18-0.19,1.68-0.25c1.06-0.19,1.18-1.37,1.43-2.92
			c0.31-2.18,0.31-6.34,0.31-11.44V42.44z M343.76,43.55c0,0.37,0.12,0.5,0.37,0.56c0.31,0.06,1.31,0.25,3.36,0.25
			c3.04,0,4.23-0.12,5.35-1.37c1.18-1.31,2.11-3.11,2.11-5.66c0-4.04-2.24-8.52-7.71-8.52c-0.62,0-1.93,0.06-2.8,0.25
			c-0.5,0.12-0.68,0.25-0.68,0.56V43.55z M343.76,49.4c0,4.1,0,10.44,0.06,11.25c0.19,2.55,0.19,3.17,1.87,3.98
			c1.49,0.68,3.79,0.75,4.79,0.75c3.61,0,8.02-1.37,8.02-8.14c0-2.36-0.93-6.9-5.22-9.63c-1.87-1.18-3.61-1.12-4.91-1.37
			c-0.68-0.12-3.42-0.12-4.29-0.12c-0.19,0-0.31,0.12-0.31,0.37V49.4z"/>
		<path d="M378.45,51.76c0,5.1,0,9.26,0.25,11.44c0.19,1.55,0.37,2.55,1.99,2.8c0.81,0.12,1.99,0.25,2.49,0.25
			c0.31,0,0.44,0.25,0.44,0.44c0,0.25-0.25,0.44-0.87,0.44c-3.05,0-6.59-0.19-6.84-0.19c-0.31,0-3.73,0.19-5.41,0.19
			c-0.56,0-0.87-0.12-0.87-0.44c0-0.19,0.12-0.44,0.44-0.44c0.5,0,1.18-0.12,1.68-0.25c1.06-0.25,1.25-1.24,1.43-2.8
			c0.25-2.18,0.31-6.34,0.31-11.44v-9.32c0-8.2,0-9.7-0.12-11.38c-0.12-1.8-0.56-2.61-1.74-2.86c-0.62-0.13-1.31-0.19-1.68-0.19
			c-0.25,0-0.43-0.25-0.43-0.43c0-0.31,0.25-0.43,0.87-0.43c1.8,0,5.22,0.12,5.53,0.12c0.25,0,3.79-0.12,5.47-0.12
			c0.62,0,0.87,0.12,0.87,0.43c0,0.19-0.25,0.43-0.44,0.43c-0.37,0-0.75,0-1.37,0.13c-1.49,0.31-1.8,1.06-1.93,2.92
			c-0.06,1.68-0.06,3.17-0.06,11.38V51.76z"/>
		<path d="M406.74,28.2c0.68-1.74,0.93-2.05,1.31-2.05c0.56,0,0.74,0.75,1.3,1.93c0.99,2.24,9.76,24.06,13.12,32.08
			c1.99,4.72,3.48,5.41,4.66,5.78c0.81,0.25,1.62,0.31,2.18,0.31c0.31,0,0.68,0.13,0.68,0.44c0,0.31-0.62,0.44-1.24,0.44
			c-0.81,0-4.85,0-8.64-0.12c-1.06-0.06-1.93-0.06-1.93-0.37c0-0.25,0.12-0.25,0.37-0.37c0.31-0.12,0.87-0.56,0.5-1.43l-4.91-12.12
			c-0.12-0.25-0.19-0.31-0.5-0.31h-12.62c-0.25,0-0.43,0.12-0.56,0.43l-3.11,8.46c-0.5,1.3-0.81,2.61-0.81,3.54
			c0,1.05,0.93,1.43,1.87,1.43h0.5c0.44,0,0.56,0.19,0.56,0.44c0,0.31-0.31,0.44-0.81,0.44c-1.31,0-4.29-0.19-4.91-0.19
			c-0.56,0-3.29,0.19-5.53,0.19c-0.68,0-1.06-0.12-1.06-0.44c0-0.25,0.25-0.44,0.5-0.44c0.37,0,1.18-0.06,1.62-0.12
			c2.49-0.31,3.54-2.17,4.6-4.85L406.74,28.2z M412.83,50.21c0.25,0,0.25-0.12,0.19-0.37l-5.41-14.48c-0.31-0.81-0.62-0.81-0.93,0
			l-5.1,14.48c-0.06,0.25,0,0.37,0.19,0.37H412.83z"/>
		<path d="M444.34,77.97V15.81h3.36v62.16H444.34z"/>
		<path d="M473.72,61.27c-6.03-5.41-7.52-12.49-7.52-18.4c0-4.16,1.43-11.44,6.96-16.97c3.73-3.73,9.38-6.65,18.96-6.65
			c2.49,0,5.97,0.19,9.02,0.75c2.36,0.44,4.35,0.81,6.34,0.93c0.69,0.06,0.81,0.31,0.81,0.68c0,0.5-0.19,1.24-0.31,3.48
			c-0.12,2.05-0.12,5.47-0.19,6.4c-0.06,0.93-0.19,1.3-0.56,1.3c-0.44,0-0.5-0.44-0.5-1.3c0-2.42-0.99-4.97-2.61-6.34
			c-2.18-1.87-6.96-3.54-12.44-3.54c-8.26,0-12.12,2.42-14.3,4.54c-4.53,4.35-5.59,9.88-5.59,16.22c0,11.87,9.14,22.75,22.44,22.75
			c4.66,0,8.33-0.56,10.82-3.11c1.3-1.37,2.11-4.11,2.3-5.22c0.12-0.68,0.24-0.93,0.62-0.93c0.31,0,0.43,0.43,0.43,0.93
			c0,0.44-0.75,5.84-1.37,7.96c-0.37,1.18-0.5,1.31-1.62,1.8c-2.48,0.99-7.21,1.43-11.19,1.43
			C484.91,67.99,478.63,65.69,473.72,61.27z"/>
		<path d="M536.28,49.09c0,5.97,0,10.88,0.31,13.49c0.19,1.8,0.56,3.17,2.43,3.42c0.87,0.12,2.23,0.25,2.8,0.25
			c0.37,0,0.5,0.19,0.5,0.37c0,0.31-0.31,0.5-1,0.5c-3.42,0-7.33-0.19-7.65-0.19c-0.31,0-4.22,0.19-6.09,0.19c-0.68,0-1-0.12-1-0.5
			c0-0.18,0.13-0.37,0.5-0.37c0.56,0,1.3-0.12,1.86-0.25c1.25-0.25,1.56-1.62,1.8-3.42c0.31-2.61,0.31-7.52,0.31-13.49v-26.3
			l-9.2,0.13c-3.86,0.06-5.35,0.5-6.34,1.99c-0.68,1.06-0.87,1.49-1.06,1.92c-0.18,0.5-0.37,0.62-0.62,0.62
			c-0.19,0-0.31-0.19-0.31-0.56c0-0.62,1.24-5.97,1.37-6.47c0.12-0.37,0.37-1.18,0.62-1.18c0.43,0,1.05,0.62,2.74,0.75
			c1.8,0.19,4.16,0.31,4.91,0.31h23.31c1.99,0,3.42-0.12,4.42-0.31c0.93-0.12,1.49-0.31,1.74-0.31c0.31,0,0.31,0.37,0.31,0.75
			c0,1.87-0.19,6.15-0.19,6.84c0,0.56-0.18,0.81-0.43,0.81c-0.31,0-0.44-0.19-0.5-1.05l-0.06-0.69c-0.19-1.87-1.68-3.29-7.65-3.42
			l-7.83-0.13V49.09z"/>
		<path d="M569.99,49.21c0,9.14,0.25,13.12,1.37,14.24c0.99,1,2.61,1.43,7.46,1.43c3.3,0,6.03-0.06,7.52-1.86
			c0.81-0.99,1.43-2.55,1.62-3.73c0.06-0.5,0.19-0.81,0.56-0.81c0.31,0,0.37,0.25,0.37,0.93c0,0.69-0.43,4.41-0.93,6.22
			c-0.43,1.43-0.62,1.68-3.92,1.68c-4.47,0-7.71-0.13-10.31-0.19c-2.61-0.12-4.54-0.19-6.34-0.19c-0.25,0-1.31,0.06-2.55,0.06
			c-1.24,0.06-2.61,0.12-3.54,0.12c-0.68,0-0.99-0.12-0.99-0.5c0-0.18,0.12-0.37,0.5-0.37c0.56,0,1.3-0.12,1.87-0.25
			c1.24-0.25,1.56-1.62,1.8-3.42c0.31-2.61,0.31-7.52,0.31-13.49V38.15c0-9.7,0-11.44-0.12-13.43c-0.13-2.12-0.62-3.11-2.68-3.54
			c-0.5-0.12-1.55-0.19-2.11-0.19c-0.25,0-0.5-0.12-0.5-0.37c0-0.37,0.31-0.5,1-0.5c2.8,0,6.71,0.19,7.02,0.19
			c0.31,0,4.85-0.19,6.71-0.19c0.68,0,1,0.13,1,0.5c0,0.25-0.25,0.37-0.5,0.37c-0.43,0-1.31,0.07-2.05,0.19
			c-1.8,0.31-2.3,1.37-2.43,3.54c-0.12,1.99-0.12,3.73-0.12,13.43V49.21z"/>
		<path d="M112.66,95.69c3.45-2.69,7.84-4.01,12.75-4.01c2.55,0,6.14,0.52,8.36,1.13c0.57,0.14,0.9,0.24,1.32,0.19
			c0.05,1.09,0.28,4.06,0.66,6.94c-0.24,0.33-0.94,0.38-1.27,0.09c-0.71-3.21-2.83-6.89-9.68-6.89c-7.22,0-13.36,4.58-13.36,14.35
			c0,9.91,6.28,15.39,14.02,15.39c6.09,0,8.78-3.96,9.87-6.75c0.33-0.24,1.04-0.14,1.23,0.19c-0.33,2.45-1.56,5.57-2.26,6.47
			c-0.57,0.09-1.13,0.28-1.65,0.47c-1.04,0.38-4.44,1.09-7.46,1.09c-4.25,0-8.31-0.85-11.75-3.16c-3.78-2.59-6.7-6.89-6.7-12.98
			C106.71,102.96,109.07,98.47,112.66,95.69z"/>
		<path d="M144.12,111.5c-1.23,0-1.27,0.09-1.27,1.28c0,4.77,2.78,8.83,7.84,8.83c1.56,0,2.88-0.47,4.34-2.31
			c0.47-0.14,0.8,0.14,0.85,0.57c-1.56,3.21-4.96,4.39-7.41,4.39c-3.07,0-5.48-1.32-6.84-3.12c-1.42-1.84-1.98-4.06-1.98-6.14
			c0-5.8,3.82-10.67,9.49-10.67c4.06,0,6.7,2.79,6.7,5.62c0,0.66-0.09,1.04-0.19,1.22c-0.14,0.29-0.8,0.33-2.79,0.33H144.12z
			 M147.05,110.08c3.49,0,4.53-0.19,4.91-0.47c0.14-0.09,0.28-0.28,0.28-0.9c0-1.32-0.9-2.97-3.63-2.97c-2.79,0-5.19,2.55-5.24,4.11
			c0,0.1,0,0.24,0.33,0.24H147.05z"/>
		<path d="M160.9,110.04c0-1.84,0-2.08-1.27-2.92l-0.42-0.29c-0.19-0.19-0.19-0.71,0.05-0.85c1.09-0.38,3.78-1.61,4.72-2.31
			c0.19,0,0.42,0.09,0.52,0.33c-0.09,1.09-0.09,1.8-0.09,2.22c0,0.28,0.19,0.52,0.52,0.52c1.98-1.23,4.2-2.41,6.61-2.41
			c3.92,0,5.52,2.69,5.52,5.85v8.12c0,3.4,0.09,3.87,1.79,4.11l1.04,0.14c0.33,0.24,0.24,1.04-0.09,1.18
			c-1.42-0.1-2.79-0.14-4.44-0.14c-1.7,0-3.12,0.05-4.39,0.14c-0.33-0.14-0.42-0.94-0.09-1.18l0.9-0.14
			c1.75-0.28,1.79-0.71,1.79-4.11v-7.03c0-2.69-1.23-4.68-4.44-4.68c-1.79,0-3.35,0.76-4.01,1.65c-0.61,0.8-0.71,1.46-0.71,2.83
			v7.22c0,3.4,0.09,3.82,1.79,4.11l0.85,0.14c0.33,0.24,0.24,1.04-0.09,1.18c-1.27-0.1-2.64-0.14-4.3-0.14
			c-1.7,0-3.12,0.05-4.44,0.14c-0.33-0.14-0.43-0.94-0.09-1.18l0.99-0.14c1.75-0.24,1.79-0.71,1.79-4.11V110.04z"/>
		<path d="M188.27,106.97c-0.8,0-0.85,0.14-0.85,1.13v8.83c0,2.74,0.33,5.24,3.45,5.24c0.47,0,0.9-0.09,1.27-0.24
			c0.42-0.14,1.04-0.66,1.18-0.66c0.38,0,0.57,0.52,0.47,0.8c-0.85,0.99-2.55,2.17-4.96,2.17c-4.06,0-4.91-2.27-4.91-5.1v-10.81
			c0-1.27-0.05-1.37-0.99-1.37h-1.32c-0.28-0.19-0.33-0.71-0.14-0.99c1.37-0.43,2.55-1.04,3.02-1.47c0.61-0.56,1.51-1.84,1.98-2.79
			c0.24-0.09,0.8-0.09,0.99,0.24v2.12c0,0.85,0.05,0.9,0.85,0.9h5.24c0.57,0.43,0.47,1.7,0.05,1.98H188.27z"/>
		<path d="M199.97,111.5c-1.23,0-1.27,0.09-1.27,1.28c0,4.77,2.79,8.83,7.84,8.83c1.56,0,2.88-0.47,4.34-2.31
			c0.47-0.14,0.8,0.14,0.85,0.57c-1.56,3.21-4.96,4.39-7.41,4.39c-3.07,0-5.48-1.32-6.84-3.12c-1.42-1.84-1.98-4.06-1.98-6.14
			c0-5.8,3.82-10.67,9.49-10.67c4.06,0,6.7,2.79,6.7,5.62c0,0.66-0.09,1.04-0.19,1.22c-0.14,0.29-0.8,0.33-2.78,0.33H199.97z
			 M202.9,110.08c3.49,0,4.53-0.19,4.91-0.47c0.14-0.09,0.28-0.28,0.28-0.9c0-1.32-0.9-2.97-3.63-2.97c-2.79,0-5.19,2.55-5.24,4.11
			c0,0.1,0,0.24,0.33,0.24H202.9z"/>
		<path d="M216.71,110.04c0-1.84,0-2.08-1.27-2.92l-0.43-0.29c-0.19-0.19-0.19-0.71,0.05-0.85c1.09-0.38,3.59-1.61,4.77-2.31
			c0.24,0.05,0.38,0.14,0.38,0.33v2.74c0,0.24,0.05,0.38,0.14,0.42c1.65-1.37,3.45-2.83,5.19-2.83c1.18,0,2.12,0.75,2.12,1.89
			c0,1.56-1.27,2.17-2.03,2.17c-0.47,0-0.71-0.14-1.04-0.33c-0.71-0.47-1.42-0.76-2.08-0.76c-0.76,0-1.32,0.42-1.7,0.94
			c-0.47,0.66-0.61,2.03-0.61,3.63v6.42c0,3.4,0.09,3.97,1.89,4.11l1.7,0.14c0.33,0.24,0.24,1.04-0.09,1.18
			c-2.22-0.1-3.59-0.14-5.24-0.14c-1.7,0-3.12,0.05-4.34,0.14c-0.33-0.14-0.42-0.94-0.09-1.18l0.9-0.14
			c1.75-0.28,1.79-0.71,1.79-4.11V110.04z"/>
		<path d="M248.34,106.97c-0.8,0-0.8,0.09-0.8,1.37v9.96c0,3.4,0.09,3.97,1.79,4.11l1.7,0.14c0.33,0.24,0.24,1.04-0.09,1.18
			c-2.12-0.1-3.49-0.14-5.15-0.14c-1.7,0-3.11,0.05-4.53,0.14c-0.33-0.14-0.42-0.94-0.1-1.18l1.09-0.14
			c1.75-0.24,1.79-0.71,1.79-4.11v-9.96c0-1.27,0-1.37-0.94-1.37h-1.65c-0.28-0.19-0.33-0.61-0.14-0.9l2.03-0.99
			c0.38-0.19,0.71-0.47,0.71-0.94c0-2.74,0.33-5.67,1.46-8.31c1.18-2.69,3.82-5.99,8.5-5.99c2.5,0,4.63,1.13,4.63,2.83
			c0,0.94-0.9,1.7-1.79,1.7c-0.52,0-0.8-0.19-1.13-0.57c-0.9-1.04-2.22-2.08-3.78-2.08c-1.46,0-2.64,0.9-3.35,2.6
			c-0.85,2.17-1.04,5.62-1.04,7.98v1.37c0,1.27,0,1.32,0.8,1.32h5.38c0.52,0.47,0.19,1.79-0.33,1.98H248.34z"/>
		<path d="M274.18,114.1c0,5.9-4.06,10.15-9.96,10.15c-5.43,0-9.68-3.83-9.68-9.72c0-5.95,4.48-10.2,10.05-10.2
			C269.88,104.33,274.18,108.29,274.18,114.1z M264.03,105.74c-3.12,0-5.43,2.97-5.43,8.17c0,4.29,1.94,8.92,6.09,8.92
			c4.15,0,5.43-4.34,5.43-7.98C270.12,110.84,268.52,105.74,264.03,105.74z"/>
		<path d="M279.54,110.04c0-1.84,0-2.08-1.27-2.92l-0.43-0.29c-0.19-0.19-0.19-0.71,0.05-0.85c1.09-0.38,3.59-1.61,4.77-2.31
			c0.24,0.05,0.38,0.14,0.38,0.33v2.74c0,0.24,0.05,0.38,0.14,0.42c1.65-1.37,3.45-2.83,5.19-2.83c1.18,0,2.12,0.75,2.12,1.89
			c0,1.56-1.27,2.17-2.03,2.17c-0.47,0-0.71-0.14-1.04-0.33c-0.71-0.47-1.42-0.76-2.08-0.76c-0.75,0-1.32,0.42-1.7,0.94
			c-0.47,0.66-0.61,2.03-0.61,3.63v6.42c0,3.4,0.09,3.97,1.89,4.11l1.7,0.14c0.33,0.24,0.24,1.04-0.09,1.18
			c-2.22-0.1-3.59-0.14-5.24-0.14c-1.7,0-3.11,0.05-4.34,0.14c-0.33-0.14-0.42-0.94-0.09-1.18l0.9-0.14
			c1.75-0.28,1.79-0.71,1.79-4.11V110.04z"/>
		<path d="M319.77,116.51c0,4.96,0.09,5.66,2.83,5.9l1.51,0.14c0.28,0.19,0.19,1.04-0.09,1.18c-2.69-0.1-4.3-0.14-6.18-0.14
			c-1.89,0-3.54,0.05-6.56,0.14c-0.28-0.14-0.38-0.94,0-1.18l1.7-0.14c2.69-0.24,2.93-0.94,2.93-5.9v-21.1c0-1.47,0-1.51-1.42-1.51
			h-2.6c-2.03,0-4.63,0.09-5.81,1.18c-1.13,1.04-1.61,2.08-2.12,3.26c-0.38,0.29-1.04,0.05-1.23-0.33c0.76-2.13,1.46-5.15,1.8-7.04
			c0.14-0.09,0.76-0.14,0.9,0c0.28,1.51,1.84,1.46,4.01,1.46h19.12c2.55,0,2.97-0.09,3.68-1.32c0.24-0.09,0.76-0.05,0.85,0.14
			c-0.52,1.93-0.85,5.76-0.71,7.17c-0.19,0.38-0.99,0.38-1.23,0.09c-0.14-1.18-0.47-2.93-1.18-3.45c-1.08-0.8-2.88-1.18-5.48-1.18
			h-3.35c-1.42,0-1.37,0.05-1.37,1.6V116.51z"/>
		<path d="M334.9,111.5c-1.23,0-1.27,0.09-1.27,1.28c0,4.77,2.79,8.83,7.84,8.83c1.56,0,2.88-0.47,4.34-2.31
			c0.47-0.14,0.8,0.14,0.85,0.57c-1.56,3.21-4.96,4.39-7.41,4.39c-3.07,0-5.47-1.32-6.84-3.12c-1.41-1.84-1.98-4.06-1.98-6.14
			c0-5.8,3.82-10.67,9.49-10.67c4.06,0,6.7,2.79,6.7,5.62c0,0.66-0.09,1.04-0.19,1.22c-0.14,0.29-0.8,0.33-2.79,0.33H334.9z
			 M337.83,110.08c3.49,0,4.53-0.19,4.91-0.47c0.14-0.09,0.28-0.28,0.28-0.9c0-1.32-0.9-2.97-3.64-2.97c-2.79,0-5.19,2.55-5.24,4.11
			c0,0.1,0,0.24,0.33,0.24H337.83z"/>
		<path d="M358.94,113.81c0.71-0.24,0.8-0.66,0.8-1.37l0.05-2.17c0.05-1.75-0.52-4.11-3.45-4.11c-1.32,0-2.93,0.66-3.02,2.12
			c-0.05,0.75-0.09,1.32-0.47,1.6c-0.71,0.57-1.98,0.9-2.69,0.9c-0.42,0-0.66-0.24-0.66-0.66c0-2.46,5.33-5.81,8.78-5.81
			c3.4,0,5.05,1.98,4.91,5.52l-0.28,8.22c-0.09,2.17,0.33,4.1,2.17,4.1c0.47,0,0.9-0.14,1.18-0.28c0.24-0.14,0.47-0.33,0.61-0.33
			c0.19,0,0.33,0.28,0.33,0.61c0,0.24-1.65,2.08-3.97,2.08c-1.13,0-2.27-0.43-3.07-1.46c-0.19-0.28-0.47-0.66-0.76-0.66
			c-0.33,0-0.9,0.43-1.84,0.94c-1.04,0.57-2.08,1.18-3.4,1.18c-1.37,0-2.5-0.38-3.3-1.08c-0.9-0.8-1.46-1.99-1.46-3.31
			c0-1.84,0.9-2.93,3.92-4.01L358.94,113.81z M356.01,122.12c0.94,0,2.41-0.71,2.88-1.18c0.57-0.57,0.57-1.23,0.61-2.22l0.1-2.78
			c0-0.52-0.19-0.62-0.47-0.62c-0.28,0-1.09,0.19-1.94,0.47c-2.79,0.94-4.15,1.65-4.15,3.49
			C353.04,120.09,353.61,122.12,356.01,122.12z"/>
		<path d="M384.06,105.13c0.38,0.33,0.71,1.09,0.71,1.89c0,0.85-0.47,1.75-1.04,1.75c-0.24,0-0.47-0.09-0.66-0.33
			c-1.04-1.28-2.79-2.5-4.72-2.5c-3.31,0-6.51,2.59-6.51,7.6c0,3.68,2.55,8.07,7.6,8.07c2.74,0,4.15-1.23,5.24-2.83
			c0.38-0.09,0.8,0.24,0.85,0.66c-1.61,3.49-5.15,4.81-7.88,4.81c-2.5,0-4.82-0.8-6.47-2.41c-1.65-1.61-2.74-3.92-2.74-6.99
			c0-5.1,3.59-10.53,11.42-10.53C380.94,104.33,382.78,104.56,384.06,105.13z"/>
		<path d="M389.91,96.96c0-2.79-0.05-3.07-1.46-3.92l-0.47-0.28c-0.24-0.14-0.24-0.8,0-0.94c1.18-0.38,3.4-1.09,5.1-1.98
			c0.19,0,0.38,0.1,0.47,0.28c-0.05,1.41-0.14,3.78-0.14,5.85v9.91c0,0.43,0.05,0.8,0.19,0.9c1.7-1.32,3.96-2.45,6.37-2.45
			c4.48,0,6.09,2.79,6.09,6.09v7.88c0,3.4,0.1,3.92,1.79,4.11l1.27,0.14c0.33,0.24,0.24,1.04-0.09,1.18
			c-1.7-0.1-3.07-0.14-4.72-0.14c-1.7,0-3.12,0.05-4.39,0.14c-0.33-0.14-0.42-0.94-0.09-1.18l0.94-0.14
			c1.75-0.28,1.79-0.71,1.79-4.11v-6.75c0-3.02-1.46-5.05-4.48-5.05c-1.61,0-2.83,0.57-3.68,1.27c-0.85,0.71-0.99,0.94-0.99,2.6
			v7.93c0,3.4,0.1,3.87,1.79,4.11l0.99,0.14c0.33,0.19,0.24,1.04-0.09,1.18c-1.42-0.1-2.79-0.14-4.44-0.14
			c-1.7,0-3.12,0.05-4.63,0.14c-0.33-0.14-0.43-0.94-0.09-1.18l1.18-0.14c1.75-0.19,1.79-0.71,1.79-4.11V96.96z"/>
		<path d="M415.07,110.04c0-1.84,0-2.08-1.27-2.92l-0.43-0.29c-0.19-0.19-0.19-0.71,0.05-0.85c1.09-0.38,3.78-1.61,4.86-2.31
			c0.24,0,0.43,0.09,0.47,0.28c-0.1,1.65-0.19,3.92-0.19,5.85v8.5c0,3.4,0.09,3.87,1.79,4.11l0.99,0.14
			c0.33,0.24,0.24,1.04-0.09,1.18c-1.42-0.1-2.79-0.14-4.44-0.14c-1.7,0-3.12,0.05-4.44,0.14c-0.33-0.14-0.43-0.94-0.09-1.18
			l0.99-0.14c1.74-0.24,1.79-0.71,1.79-4.11V110.04z M418.98,96.58c0,1.7-1.18,2.45-2.5,2.45c-1.46,0-2.41-1.09-2.41-2.36
			c0-1.56,1.13-2.55,2.55-2.55C418.04,94.13,418.98,95.26,418.98,96.58z"/>
		<path d="M427.39,110.04c0-1.84,0-2.08-1.28-2.92l-0.42-0.29c-0.19-0.19-0.19-0.71,0.05-0.85c1.09-0.38,3.78-1.61,4.72-2.31
			c0.19,0,0.43,0.09,0.52,0.33c-0.09,1.09-0.09,1.8-0.09,2.22c0,0.28,0.19,0.52,0.52,0.52c1.98-1.23,4.2-2.41,6.61-2.41
			c3.92,0,5.52,2.69,5.52,5.85v8.12c0,3.4,0.09,3.87,1.79,4.11l1.04,0.14c0.33,0.24,0.24,1.04-0.09,1.18
			c-1.42-0.1-2.79-0.14-4.44-0.14c-1.7,0-3.12,0.05-4.39,0.14c-0.33-0.14-0.42-0.94-0.09-1.18l0.89-0.14
			c1.75-0.28,1.79-0.71,1.79-4.11v-7.03c0-2.69-1.23-4.68-4.44-4.68c-1.8,0-3.35,0.76-4.01,1.65c-0.61,0.8-0.71,1.46-0.71,2.83v7.22
			c0,3.4,0.09,3.82,1.79,4.11l0.85,0.14c0.33,0.24,0.24,1.04-0.09,1.18c-1.28-0.1-2.64-0.14-4.3-0.14c-1.7,0-3.11,0.05-4.44,0.14
			c-0.33-0.14-0.43-0.94-0.1-1.18l0.99-0.14c1.75-0.24,1.79-0.71,1.79-4.11V110.04z"/>
		<path d="M468.56,106.03c0.52,0.23,0.42,1.84-0.28,1.93h-3.4c0.1,0.8,0.1,1.61,0.1,2.41c0,3.26-1.94,7.51-7.93,7.51
			c-0.85,0-1.51-0.09-2.08-0.14c-0.57,0.33-2.08,1.23-2.08,2.6c0,1.09,1.09,1.98,3.31,1.98c1.61,0,3.54-0.14,5.62-0.14
			c2.64,0,6.61,0.47,6.61,5.19c0,5.14-5.62,8.92-11.75,8.92c-5.81,0-7.83-3.11-7.83-5.48c0-0.76,0.19-1.37,0.52-1.75
			c0.8-0.85,2.13-2.08,3.21-3.16c0.42-0.42,0.8-0.85,0.38-1.13c-1.84-0.47-3.44-2.08-3.44-3.73c0-0.24,0.19-0.43,0.71-0.8
			c0.8-0.52,1.7-1.32,2.5-2.17c0.24-0.29,0.47-0.66,0.47-0.9c-1.61-0.85-3.54-2.69-3.54-5.71c0-4.06,3.49-7.13,7.69-7.13
			c1.79,0,3.45,0.47,4.53,0.94c1.51,0.66,1.84,0.75,2.88,0.75H468.56z M458.69,125.1c-1.51,0-3.4,0.1-4.06,0.52
			c-1.13,0.71-2.27,2.17-2.27,3.97c0,2.55,2.03,4.67,6.33,4.67c4.2,0,6.99-2.36,6.99-5.05c0-2.88-1.98-4.11-5.38-4.11H458.69z
			 M461.62,111.6c0-3.21-1.32-5.9-4.2-5.9c-2.27,0-3.97,2.08-3.97,5.29c0,3.35,2.03,5.52,4.3,5.52
			C460.29,116.51,461.62,114.48,461.62,111.6z"/>
		<path d="M491.55,113.81c0.71-0.24,0.8-0.66,0.8-1.37l0.04-2.17c0.05-1.75-0.52-4.11-3.44-4.11c-1.32,0-2.93,0.66-3.02,2.12
			c-0.04,0.75-0.09,1.32-0.47,1.6c-0.71,0.57-1.98,0.9-2.69,0.9c-0.42,0-0.66-0.24-0.66-0.66c0-2.46,5.33-5.81,8.78-5.81
			c3.4,0,5.05,1.98,4.91,5.52l-0.28,8.22c-0.1,2.17,0.33,4.1,2.17,4.1c0.47,0,0.9-0.14,1.18-0.28c0.24-0.14,0.47-0.33,0.62-0.33
			c0.19,0,0.33,0.28,0.33,0.61c0,0.24-1.65,2.08-3.97,2.08c-1.13,0-2.27-0.43-3.07-1.46c-0.19-0.28-0.47-0.66-0.75-0.66
			c-0.33,0-0.9,0.43-1.84,0.94c-1.03,0.57-2.08,1.18-3.4,1.18c-1.37,0-2.5-0.38-3.3-1.08c-0.9-0.8-1.46-1.99-1.46-3.31
			c0-1.84,0.9-2.93,3.92-4.01L491.55,113.81z M488.62,122.12c0.94,0,2.41-0.71,2.88-1.18c0.57-0.57,0.57-1.23,0.62-2.22l0.09-2.78
			c0-0.52-0.19-0.62-0.47-0.62c-0.28,0-1.08,0.19-1.93,0.47c-2.79,0.94-4.15,1.65-4.15,3.49
			C485.65,120.09,486.21,122.12,488.62,122.12z"/>
		<path d="M504.97,110.04c0-1.84,0-2.08-1.27-2.92l-0.43-0.29c-0.19-0.19-0.19-0.71,0.05-0.85c1.08-0.38,3.78-1.61,4.72-2.31
			c0.19,0,0.43,0.09,0.52,0.33c-0.09,1.09-0.09,1.8-0.09,2.22c0,0.28,0.19,0.52,0.52,0.52c1.98-1.23,4.2-2.41,6.61-2.41
			c3.92,0,5.52,2.69,5.52,5.85v8.12c0,3.4,0.09,3.87,1.79,4.11l1.04,0.14c0.33,0.24,0.23,1.04-0.1,1.18
			c-1.41-0.1-2.78-0.14-4.44-0.14c-1.7,0-3.12,0.05-4.39,0.14c-0.33-0.14-0.43-0.94-0.1-1.18l0.9-0.14
			c1.74-0.28,1.79-0.71,1.79-4.11v-7.03c0-2.69-1.22-4.68-4.43-4.68c-1.8,0-3.36,0.76-4.02,1.65c-0.61,0.8-0.71,1.46-0.71,2.83v7.22
			c0,3.4,0.09,3.82,1.79,4.11l0.85,0.14c0.33,0.24,0.23,1.04-0.1,1.18c-1.27-0.1-2.64-0.14-4.29-0.14c-1.7,0-3.12,0.05-4.44,0.14
			c-0.33-0.14-0.42-0.94-0.09-1.18l0.99-0.14c1.74-0.24,1.79-0.71,1.79-4.11V110.04z"/>
		<path d="M544.34,116.69c0,3.73,0.04,5.48,1.37,5.48c0.52,0,1.32-0.24,2.03-0.47c0.33,0.09,0.38,1.28-0.05,1.51
			c-1.98,0.28-4.91,0.99-6.23,1.51c-0.29,0-0.52-0.14-0.52-0.38v-0.8c0-0.71,0-1.27-0.1-1.46h-0.19c-2.08,1.42-3.68,2.17-5.95,2.17
			c-5.24,0-8.73-4.1-8.73-9.06c0-6.61,5-10.86,11.42-10.86c1.61,0,2.64,0.23,3.17,0.42c0.23,0,0.28-0.28,0.28-0.66v-7.13
			c0-2.79-0.05-3.07-1.46-3.92l-0.47-0.28c-0.23-0.14-0.23-0.8,0-0.94c1.18-0.38,3.4-1.09,5.1-1.98c0.19,0,0.38,0.1,0.47,0.28
			c-0.05,1.41-0.14,3.78-0.14,5.85V116.69z M540.84,109.61c0-0.94-0.19-1.37-0.52-1.84c-0.71-0.99-2.13-1.98-3.97-1.98
			c-4.29,0-6.52,3.73-6.52,7.83c0,4.3,2.41,8.36,7.04,8.36c1.27,0,2.88-0.57,3.63-1.32c0.28-0.28,0.33-0.99,0.33-1.75V109.61z"/>
		<path d="M566.2,99.51c0-4.96-0.09-5.71-3.07-5.95l-1.18-0.1c-0.29-0.19-0.19-1.04,0.09-1.18c2.64,0.1,4.25,0.14,6.14,0.14
			c1.84,0,3.44-0.05,5.81-0.14c0.28,0.14,0.38,0.99,0.09,1.18l-1.13,0.1c-2.78,0.23-2.88,0.99-2.88,5.95v16.43
			c0,2.97,0.14,4.2,0.99,5.1c0.52,0.52,1.42,1.08,5.15,1.08c4.01,0,5.01-0.19,5.76-0.61c0.94-0.57,2.17-2.27,3.11-4.67
			c0.28-0.24,1.18-0.05,1.18,0.29c0,0.52-1.32,5.33-1.99,6.61c-2.41-0.1-6.89-0.14-11.75-0.14h-4.34c-1.98,0-3.49,0.05-6.14,0.14
			c-0.28-0.14-0.38-0.9-0.09-1.18l1.41-0.14c2.74-0.28,2.83-0.94,2.83-5.9V99.51z"/>
		<path d="M593.33,111.5c-1.23,0-1.27,0.09-1.27,1.28c0,4.77,2.78,8.83,7.83,8.83c1.56,0,2.88-0.47,4.34-2.31
			c0.47-0.14,0.8,0.14,0.85,0.57c-1.56,3.21-4.96,4.39-7.41,4.39c-3.07,0-5.48-1.32-6.85-3.12c-1.41-1.84-1.98-4.06-1.98-6.14
			c0-5.8,3.83-10.67,9.49-10.67c4.06,0,6.7,2.79,6.7,5.62c0,0.66-0.09,1.04-0.19,1.22c-0.14,0.29-0.8,0.33-2.78,0.33H593.33z
			 M596.26,110.08c3.49,0,4.53-0.19,4.91-0.47c0.14-0.09,0.28-0.28,0.28-0.9c0-1.32-0.9-2.97-3.63-2.97c-2.79,0-5.19,2.55-5.24,4.11
			c0,0.1,0,0.24,0.33,0.24H596.26z"/>
		<path d="M617.37,113.81c0.71-0.24,0.8-0.66,0.8-1.37l0.05-2.17c0.05-1.75-0.52-4.11-3.44-4.11c-1.32,0-2.93,0.66-3.02,2.12
			c-0.05,0.75-0.1,1.32-0.47,1.6c-0.71,0.57-1.98,0.9-2.69,0.9c-0.42,0-0.66-0.24-0.66-0.66c0-2.46,5.34-5.81,8.78-5.81
			c3.4,0,5.05,1.98,4.91,5.52l-0.28,8.22c-0.1,2.17,0.33,4.1,2.17,4.1c0.47,0,0.9-0.14,1.18-0.28c0.24-0.14,0.48-0.33,0.62-0.33
			c0.19,0,0.33,0.28,0.33,0.61c0,0.24-1.65,2.08-3.97,2.08c-1.13,0-2.27-0.43-3.07-1.46c-0.19-0.28-0.47-0.66-0.76-0.66
			c-0.33,0-0.89,0.43-1.84,0.94c-1.04,0.57-2.08,1.18-3.4,1.18c-1.37,0-2.5-0.38-3.3-1.08c-0.9-0.8-1.47-1.99-1.47-3.31
			c0-1.84,0.9-2.93,3.92-4.01L617.37,113.81z M614.44,122.12c0.94,0,2.41-0.71,2.88-1.18c0.57-0.57,0.57-1.23,0.62-2.22l0.09-2.78
			c0-0.52-0.19-0.62-0.47-0.62c-0.29,0-1.09,0.19-1.94,0.47c-2.78,0.94-4.15,1.65-4.15,3.49
			C611.46,120.09,612.03,122.12,614.44,122.12z"/>
		<path d="M630.74,110.04c0-1.84,0-2.08-1.27-2.92l-0.43-0.29c-0.19-0.19-0.19-0.71,0.05-0.85c1.09-0.38,3.59-1.61,4.77-2.31
			c0.23,0.05,0.38,0.14,0.38,0.33v2.74c0,0.24,0.04,0.38,0.14,0.42c1.65-1.37,3.45-2.83,5.19-2.83c1.18,0,2.12,0.75,2.12,1.89
			c0,1.56-1.27,2.17-2.03,2.17c-0.47,0-0.71-0.14-1.04-0.33c-0.71-0.47-1.41-0.76-2.08-0.76c-0.76,0-1.32,0.42-1.7,0.94
			c-0.47,0.66-0.61,2.03-0.61,3.63v6.42c0,3.4,0.09,3.97,1.89,4.11l1.7,0.14c0.33,0.24,0.23,1.04-0.1,1.18
			c-2.22-0.1-3.59-0.14-5.24-0.14c-1.7,0-3.12,0.05-4.34,0.14c-0.33-0.14-0.43-0.94-0.1-1.18l0.9-0.14
			c1.74-0.28,1.79-0.71,1.79-4.11V110.04z"/>
		<path d="M646.49,110.04c0-1.84,0-2.08-1.28-2.92l-0.42-0.29c-0.19-0.19-0.19-0.71,0.04-0.85c1.09-0.38,3.78-1.61,4.72-2.31
			c0.19,0,0.43,0.09,0.52,0.33c-0.1,1.09-0.1,1.8-0.1,2.22c0,0.28,0.19,0.52,0.52,0.52c1.99-1.23,4.2-2.41,6.61-2.41
			c3.92,0,5.52,2.69,5.52,5.85v8.12c0,3.4,0.1,3.87,1.8,4.11l1.04,0.14c0.33,0.24,0.24,1.04-0.09,1.18
			c-1.42-0.1-2.79-0.14-4.44-0.14c-1.7,0-3.11,0.05-4.39,0.14c-0.33-0.14-0.42-0.94-0.09-1.18l0.9-0.14
			c1.75-0.28,1.79-0.71,1.79-4.11v-7.03c0-2.69-1.23-4.68-4.44-4.68c-1.79,0-3.35,0.76-4.02,1.65c-0.61,0.8-0.71,1.46-0.71,2.83
			v7.22c0,3.4,0.1,3.82,1.8,4.11l0.85,0.14c0.33,0.24,0.24,1.04-0.09,1.18c-1.28-0.1-2.64-0.14-4.3-0.14c-1.7,0-3.11,0.05-4.44,0.14
			c-0.33-0.14-0.43-0.94-0.1-1.18l0.99-0.14c1.75-0.24,1.8-0.71,1.8-4.11V110.04z"/>
		<path d="M671.51,110.04c0-1.84,0-2.08-1.27-2.92l-0.43-0.29c-0.19-0.19-0.19-0.71,0.05-0.85c1.09-0.38,3.78-1.61,4.86-2.31
			c0.24,0,0.43,0.09,0.47,0.28c-0.1,1.65-0.19,3.92-0.19,5.85v8.5c0,3.4,0.09,3.87,1.79,4.11l0.99,0.14
			c0.33,0.24,0.24,1.04-0.1,1.18c-1.41-0.1-2.78-0.14-4.43-0.14c-1.7,0-3.12,0.05-4.44,0.14c-0.33-0.14-0.42-0.94-0.09-1.18
			l0.99-0.14c1.74-0.24,1.79-0.71,1.79-4.11V110.04z M675.43,96.58c0,1.7-1.18,2.45-2.5,2.45c-1.46,0-2.41-1.09-2.41-2.36
			c0-1.56,1.13-2.55,2.55-2.55C674.49,94.13,675.43,95.26,675.43,96.58z"/>
		<path d="M683.84,110.04c0-1.84,0-2.08-1.27-2.92l-0.43-0.29c-0.19-0.19-0.19-0.71,0.05-0.85c1.09-0.38,3.78-1.61,4.72-2.31
			c0.19,0,0.43,0.09,0.52,0.33c-0.09,1.09-0.09,1.8-0.09,2.22c0,0.28,0.19,0.52,0.52,0.52c1.98-1.23,4.2-2.41,6.61-2.41
			c3.92,0,5.52,2.69,5.52,5.85v8.12c0,3.4,0.09,3.87,1.79,4.11l1.04,0.14c0.33,0.24,0.23,1.04-0.1,1.18
			c-1.41-0.1-2.78-0.14-4.44-0.14c-1.7,0-3.12,0.05-4.39,0.14c-0.33-0.14-0.43-0.94-0.1-1.18l0.9-0.14
			c1.74-0.28,1.79-0.71,1.79-4.11v-7.03c0-2.69-1.23-4.68-4.44-4.68c-1.8,0-3.35,0.76-4.01,1.65c-0.62,0.8-0.71,1.46-0.71,2.83v7.22
			c0,3.4,0.09,3.82,1.79,4.11l0.85,0.14c0.33,0.24,0.23,1.04-0.1,1.18c-1.27-0.1-2.64-0.14-4.3-0.14c-1.7,0-3.12,0.05-4.44,0.14
			c-0.33-0.14-0.42-0.94-0.09-1.18l0.99-0.14c1.74-0.24,1.79-0.71,1.79-4.11V110.04z"/>
		<path d="M725,106.03c0.52,0.23,0.43,1.84-0.28,1.93h-3.4c0.09,0.8,0.09,1.61,0.09,2.41c0,3.26-1.94,7.51-7.93,7.51
			c-0.85,0-1.51-0.09-2.08-0.14c-0.57,0.33-2.08,1.23-2.08,2.6c0,1.09,1.08,1.98,3.31,1.98c1.6,0,3.54-0.14,5.62-0.14
			c2.64,0,6.61,0.47,6.61,5.19c0,5.14-5.62,8.92-11.76,8.92c-5.8,0-7.83-3.11-7.83-5.48c0-0.76,0.19-1.37,0.52-1.75
			c0.8-0.85,2.12-2.08,3.21-3.16c0.43-0.42,0.8-0.85,0.38-1.13c-1.84-0.47-3.45-2.08-3.45-3.73c0-0.24,0.19-0.43,0.71-0.8
			c0.8-0.52,1.7-1.32,2.5-2.17c0.24-0.29,0.47-0.66,0.47-0.9c-1.61-0.85-3.54-2.69-3.54-5.71c0-4.06,3.5-7.13,7.7-7.13
			c1.79,0,3.44,0.47,4.53,0.94c1.51,0.66,1.84,0.75,2.87,0.75H725z M715.14,125.1c-1.51,0-3.4,0.1-4.06,0.52
			c-1.13,0.71-2.27,2.17-2.27,3.97c0,2.55,2.03,4.67,6.32,4.67c4.2,0,6.99-2.36,6.99-5.05c0-2.88-1.98-4.11-5.38-4.11H715.14z
			 M718.07,111.6c0-3.21-1.32-5.9-4.2-5.9c-2.27,0-3.97,2.08-3.97,5.29c0,3.35,2.03,5.52,4.3,5.52
			C716.74,116.51,718.07,114.48,718.07,111.6z"/>
	</g>
	<g>
		<rect x="15.75" y="62.82" class="st0" width="59.51" height="4.9"/>
		<path class="st0" d="M82.65,22.4c-6.36-6.24-17.55-2.33-30.23,1.72c-0.71,0.23-1.45,0.02-2.09-0.49
			c-0.55-0.46-1.14-0.86-1.71-1.19c1.79-1.06,2.99-3.01,2.99-5.24c0-3.04-2.24-5.56-5.15-6.01l2.24-2.89c0.22-0.29,0.22-0.76,0-1.04
			l-2.78-3.59c-0.11-0.14-0.25-0.22-0.4-0.22c-0.15,0-0.29,0.07-0.4,0.22l-2.78,3.59c-0.22,0.29-0.22,0.76,0,1.04l2.24,2.89
			c-2.92,0.46-5.15,2.97-5.15,6.01c0,2.23,1.2,4.18,2.99,5.24c-0.58,0.34-1.16,0.73-1.72,1.19c-0.65,0.52-1.38,0.72-2.1,0.49
			c-12.68-4.05-23.87-7.96-30.23-1.72c-7.62,7.47,1.25,19.56,4.04,24.53c1.96,3.49,3.34,7.55,3.34,10.78H45.5h29.76
			c0-3.23,1.39-7.29,3.34-10.78C81.4,41.96,90.27,29.87,82.65,22.4z M36.44,53.59c-2.3,0.15-4.2-1.98-4.94-4.89l1.89-4.42
			c0.21-0.49,0.07-0.94-0.25-1.26l-5.98-5.98c-0.34-0.34-0.65-0.36-0.81,0l-2.83,5.97c-0.22,0.51,0.02,0.91,0.32,1.25l4.47,4.51
			c0.93,3.55-1.47,4.84-2.83,4.84c-4.74,0-8.53-6.44-12.4-13.12c-3.81-6.56-5.15-11.36-2.28-14.97c4.79-6.05,17.37-1.26,27.14,3.19
			c-0.09,1.4,0.24,3.02,1.1,4.96C44.19,45.16,40.72,53.29,36.44,53.59z M77.93,40.49c-3.88,6.68-7.66,13.12-12.4,13.12
			c-1.36,0-3.77-1.29-2.83-4.84l4.47-4.51c0.3-0.34,0.54-0.74,0.32-1.25l-2.83-5.97c-0.16-0.36-0.47-0.34-0.81,0l-5.98,5.98
			c-0.32,0.32-0.46,0.77-0.25,1.26l1.89,4.42c-0.73,2.91-2.63,5.04-4.93,4.89c-4.28-0.29-7.76-8.43-2.6-19.92
			c0.87-1.93,1.2-3.56,1.11-4.96c9.77-4.45,22.35-9.24,27.14-3.19C83.08,29.14,81.74,33.94,77.93,40.49z"/>
	</g>
</g>
</svg>
