<?xml version="1.0" encoding="utf-8"?>
<!-- Generator: Adobe Illustrator 27.4.1, SVG Export Plug-In . SVG Version: 6.00 Build 0)  -->
<svg version="1.1" id="Layer_1" xmlns="http://www.w3.org/2000/svg" xmlns:xlink="http://www.w3.org/1999/xlink" x="0px" y="0px"
	 viewBox="0 0 834.6 292" style="enable-background:new 0 0 834.6 292;" xml:space="preserve">
<style type="text/css">
	.st0{fill:none;}
	.st1{fill:#55B95D;}
	.st2{fill:#FFFFFF;}
</style>
<g>
	<path class="st0" d="M90.1,120.3c0.9,2.9,3.9,4.5,6.8,3.6c22.1-6.7,50.5-3.4,69.2,8.1c2.5,1.6,5.9,0.8,7.4-1.8v0
		c1.6-2.5,0.8-5.9-1.8-7.4c-6.5-4-13.8-7.1-21.7-9.3l-9.1,3.6c-2.4,1-5.1,1.5-7.7,1.5l0,0c-2.7,0-5.3-0.5-7.8-1.5l-16.7-6.7
		c-5.2,0.6-10.2,1.7-15,3.2C90.8,114.4,89.2,117.4,90.1,120.3z"/>
	<path class="st0" d="M163.5,143.2c-18.3-11.2-41-13.8-67.4-7.7c-2.3,0.5-3.8,2.9-3.3,5.2c0.5,2.3,2.9,3.8,5.2,3.3
		c24.2-5.5,44.7-3.3,61,6.7c2,1.3,4.7,0.6,6-1.4C166.2,147.1,165.5,144.4,163.5,143.2z"/>
	<path class="st1" d="M26.7,62.8L26.7,62.8l103.8,41.5c1.6,0.7,3.5,0.7,5.1,0l103.8-41.5c2.6-1,4.4-3.6,4.4-6.4
		c0-2.8-1.7-5.4-4.4-6.4L135.7,8.4c-1.6-0.7-3.5-0.7-5.1,0L26.7,49.9c-2.6,1-4.4,3.6-4.4,6.4C22.4,59.2,24.1,61.7,26.7,62.8z"/>
	<path class="st1" d="M240.8,217.1c-11.1-18.3-26.9-33.3-45.8-43.2c-15.7,17.7-38.2,27.8-61.8,27.8c-23.6,0-46.1-10.1-61.8-27.8
		c-18.9,10-34.8,24.9-45.9,43.2c-11.1,18.3-16.9,39.3-16.9,60.7c0,1.8,0.7,3.6,2,4.9c1.3,1.3,3.1,2,4.9,2h235.3c1.8,0,3.6-0.7,4.9-2
		c1.3-1.3,2-3.1,2-4.9C257.7,256.4,251.8,235.4,240.8,217.1z"/>
	<polygon class="st1" points="194.9,173.9 194.9,173.9 194.9,173.9 	"/>
	<path class="st0" d="M133.2,118.6L133.2,118.6c2.6,0,5.3-0.5,7.7-1.5l9.1-3.6c-13.2-3.7-27.6-4.8-41.3-3.1l16.7,6.7
		C127.9,118.1,130.5,118.6,133.2,118.6z"/>
	<path d="M143.3,187.1c-1.4,0.2-2.9,0.4-4.4,0.5C140.3,187.5,141.8,187.3,143.3,187.1z"/>
	<path d="M156.2,183.9c-0.7,0.3-1.5,0.5-2.2,0.7C154.7,184.4,155.5,184.1,156.2,183.9z"/>
	<path d="M162.8,181.1c-0.7,0.3-1.4,0.6-2.1,0.9C161.5,181.8,162.2,181.5,162.8,181.1z"/>
	<path d="M185.9,163.5c-0.3,0.3-0.6,0.7-0.9,1C185.3,164.2,185.6,163.8,185.9,163.5z"/>
	<path d="M167.8,178.6c0.4-0.2,0.7-0.4,1-0.6c-1.9,1.2-3.9,2.2-6,3.2C164.5,180.3,166.2,179.5,167.8,178.6z"/>
	<path d="M179.9,169.7c1.5-1.4,2.9-2.8,4.3-4.3C182.8,166.9,181.4,168.3,179.9,169.7z"/>
	<path d="M179.8,169.8c-3.3,3-6.9,5.7-10.7,8C172.9,175.4,176.5,172.7,179.8,169.8z"/>
	<path class="st1" d="M174.1,110.5L174.1,110.5c-2.3-1.4-4.8-2.6-7.4-3.7l-16.8,6.7c7.8,2.2,15.2,5.3,21.7,9.3
		c2.5,1.6,3.3,4.9,1.8,7.4v0c-1.6,2.5-4.9,3.3-7.4,1.8c-18.7-11.5-47.1-14.8-69.2-8.1c-2.9,0.9-5.9-0.7-6.8-3.6
		c-0.9-2.9,0.8-5.9,3.6-6.7c4.8-1.5,9.9-2.5,15-3.2l-40-16c-3,7.7-4.6,15.9-4.7,24.2c0,24.7,13.2,47.6,34.6,59.9
		c10.7,6.2,22.6,9.3,34.6,9.3c0.1,0,0.3,0,0.4,0c0.5,0,1,0,1.5,0c0.4,0,0.7,0,1.1,0c0.3,0,0.6,0,0.9,0c0.4,0,0.8,0,1.2-0.1
		c0.2,0,0.4,0,0.7-0.1c1.5-0.1,2.9-0.3,4.4-0.5c0.2,0,0.4-0.1,0.5-0.1c0.4-0.1,0.9-0.1,1.3-0.2c0.2,0,0.4-0.1,0.6-0.1
		c0.4-0.1,0.9-0.2,1.3-0.2c0.1,0,0.3-0.1,0.4-0.1c0.9-0.2,1.7-0.4,2.6-0.6c0.1,0,0.3-0.1,0.4-0.1c0.4-0.1,0.9-0.2,1.3-0.3
		c0.2-0.1,0.4-0.1,0.6-0.2c0.4-0.1,0.9-0.3,1.3-0.4c0.1,0,0.2-0.1,0.3-0.1c0.7-0.2,1.5-0.5,2.2-0.7c0.7-0.3,1.5-0.5,2.2-0.8
		c0.1,0,0.1-0.1,0.2-0.1c0.7-0.3,1.4-0.6,2.2-0.9c0.7-0.3,1.4-0.6,2.1-0.9c0,0,0,0,0,0c2-1,4-2,6-3.2c0.1,0,0.1-0.1,0.2-0.1
		c3.8-2.3,7.4-5,10.7-8c0,0,0.1-0.1,0.1-0.1c1.5-1.4,2.9-2.8,4.3-4.3c0.3-0.3,0.6-0.6,0.8-0.9c0.3-0.3,0.6-0.7,0.9-1
		c0.6-0.7,1.2-1.4,1.7-2.1c0-0.1,0.1-0.1,0.1-0.2c0.3-0.3,0.5-0.7,0.8-1c0.2-0.3,0.5-0.6,0.7-0.9c0.1-0.2,0.3-0.4,0.4-0.5
		c8.2-11.5,12.8-25.5,12.8-40.1c0-8.3-1.6-16.5-4.7-24.2l-15.5,6.2c1.9,2.1,2.3,5.2,0.8,7.7C181.2,111.4,177.2,112.4,174.1,110.5z
		 M164.9,149.1c-1.2,2-3.9,2.7-6,1.4c-16.3-10-36.8-12.2-61-6.7c-2.3,0.5-4.6-0.9-5.2-3.3c-0.5-2.3,0.9-4.6,3.3-5.2
		c26.4-6,49.1-3.4,67.4,7.7C165.5,144.4,166.2,147.1,164.9,149.1z"/>
	<path class="st1" d="M158.4,183.1c-0.7,0.3-1.5,0.6-2.2,0.8C157,183.6,157.7,183.3,158.4,183.1z"/>
	<path class="st1" d="M187.6,161.4c-0.6,0.7-1.1,1.4-1.7,2.1C186.5,162.8,187,162.1,187.6,161.4z"/>
	<path class="st1" d="M185,164.5c-0.3,0.3-0.5,0.6-0.8,0.9C184.4,165.1,184.7,164.8,185,164.5z"/>
	<path class="st1" d="M169.1,177.8c-0.1,0-0.1,0.1-0.2,0.1C168.9,177.9,169,177.8,169.1,177.8z"/>
	<path class="st1" d="M160.8,182.1c-0.7,0.3-1.4,0.6-2.2,0.9C159.4,182.7,160.1,182.4,160.8,182.1z"/>
	<path class="st1" d="M162.9,181.1C162.9,181.1,162.9,181.1,162.9,181.1C162.9,181.1,162.9,181.1,162.9,181.1z"/>
	<path class="st1" d="M179.9,169.7c0,0-0.1,0.1-0.1,0.1C179.8,169.7,179.9,169.7,179.9,169.7z"/>
</g>
<g>
	<path class="st2" d="M329.6,178.6c-5.3-2.2-9.4-5.3-12.6-9.6c-3.1-4.2-4.8-9.3-5-15.2h23.5c0.3,3.4,1.5,5.9,3.5,7.7
		c2,1.8,4.6,2.6,7.7,2.6c3.3,0,5.9-0.8,7.7-2.3c1.9-1.5,2.8-3.6,2.8-6.3c0-2.2-0.8-4.1-2.3-5.6c-1.5-1.5-3.4-2.7-5.6-3.6
		c-2.2-0.9-5.3-2-9.4-3.2c-5.9-1.8-10.6-3.6-14.3-5.4c-3.7-1.8-6.9-4.5-9.6-8c-2.7-3.5-4-8.1-4-13.8c0-8.4,3.1-15,9.2-19.8
		c6.1-4.8,14.1-7.2,23.9-7.2c10,0,18,2.4,24.1,7.2c6.1,4.8,9.4,11.4,9.8,19.9h-23.9c-0.2-2.9-1.2-5.2-3.2-6.9
		c-2-1.7-4.5-2.5-7.6-2.5c-2.7,0-4.8,0.7-6.5,2.1c-1.6,1.4-2.5,3.5-2.5,6.1c0,2.9,1.4,5.2,4.1,6.8c2.8,1.6,7.1,3.4,12.9,5.3
		c5.9,2,10.6,3.9,14.3,5.7c3.7,1.8,6.8,4.4,9.5,7.9c2.7,3.4,4,7.9,4,13.3c0,5.2-1.3,9.9-3.9,14.1c-2.6,4.2-6.4,7.6-11.4,10.1
		c-5,2.5-10.9,3.7-17.7,3.7C340.8,181.8,334.9,180.7,329.6,178.6z"/>
	<path class="st2" d="M434.2,162.2v18.7H423c-8,0-14.2-2-18.7-5.9c-4.5-3.9-6.7-10.3-6.7-19.2v-28.7h-8.8v-18.3h8.8V91.3h22.1v17.6
		h14.5v18.3h-14.5v28.9c0,2.2,0.5,3.7,1.5,4.6c1,0.9,2.8,1.4,5.2,1.4H434.2z"/>
	<path class="st2" d="M446.3,125.3c2.8-5.6,6.6-9.9,11.4-12.9c4.8-3,10.2-4.5,16.1-4.5c5.1,0,9.5,1,13.4,3.1
		c3.8,2.1,6.8,4.8,8.8,8.1v-10.2h22.1v72H496v-10.2c-2.2,3.4-5.1,6.1-9,8.1c-3.8,2.1-8.3,3.1-13.4,3.1c-5.9,0-11.2-1.5-16-4.6
		c-4.8-3.1-8.6-7.4-11.4-13c-2.8-5.6-4.2-12.2-4.2-19.6C442.1,137.3,443.5,130.9,446.3,125.3z M491.4,131.8
		c-3.1-3.2-6.8-4.8-11.2-4.8c-4.4,0-8.1,1.6-11.2,4.7c-3.1,3.1-4.6,7.5-4.6,13c0,5.5,1.5,9.9,4.6,13.1c3.1,3.2,6.8,4.8,11.2,4.8
		c4.4,0,8.1-1.6,11.2-4.8c3.1-3.2,4.6-7.5,4.6-13C496,139.4,494.5,135,491.4,131.8z"/>
	<path class="st2" d="M574.2,162.2v18.7H563c-8,0-14.2-2-18.7-5.9c-4.5-3.9-6.7-10.3-6.7-19.2v-28.7h-8.8v-18.3h8.8V91.3h22.1v17.6
		h14.5v18.3h-14.5v28.9c0,2.2,0.5,3.7,1.5,4.6c1,0.9,2.8,1.4,5.2,1.4H574.2z"/>
	<path class="st1" d="M588.1,98c-2.5-2.3-3.7-5.1-3.7-8.5c0-3.4,1.2-6.3,3.7-8.6c2.5-2.3,5.6-3.4,9.5-3.4c3.8,0,6.9,1.1,9.4,3.4
		c2.5,2.3,3.7,5.1,3.7,8.6c0,3.4-1.2,6.2-3.7,8.5c-2.5,2.3-5.6,3.4-9.4,3.4C593.7,101.4,590.6,100.2,588.1,98z M608.6,108.9v72
		h-22.1v-72H608.6z"/>
	<path class="st1" d="M660.7,127.2h-11.9v53.7h-22.1v-53.7h-8v-18.3h8v-2.1c0-8.9,2.5-15.6,7.6-20.2c5.1-4.6,12.5-6.9,22.3-6.9
		c1.6,0,2.8,0,3.6,0.1v18.7c-4.2-0.3-7.2,0.3-8.9,1.8c-1.7,1.5-2.6,4.1-2.6,7.9v0.6h11.9V127.2z"/>
	<path class="st1" d="M744.6,108.9l-45.2,106.2h-23.8l16.5-36.7l-29.3-69.6h24.7l16.7,45.1l16.5-45.1H744.6z"/>
</g>
</svg>
